<?xml version="1.0" encoding="UTF-8"?>
<svg width="1256.5" height="1128" version="1.1" viewBox="0 0 332.45 298.45" xmlns="http://www.w3.org/2000/svg" xmlns:cc="http://creativecommons.org/ns#" xmlns:dc="http://purl.org/dc/elements/1.1/" xmlns:rdf="http://www.w3.org/1999/02/22-rdf-syntax-ns#">
 <title>Globo Politico Icon for Message</title>
 <metadata>
  <rdf:RDF>
   <cc:Work rdf:about="">
    <dc:format>image/svg+xml</dc:format>
    <dc:type rdf:resource="http://purl.org/dc/dcmitype/StillImage"/>
    <dc:title>Globo Politico Icon for Message</dc:title>
   </cc:Work>
  </rdf:RDF>
 </metadata>
 <g transform="translate(-4032.4 -596.9)">
  <path d="m4144.3 596.9a111.92 111.92 0 0 0-111.92 111.92h5e-4v18.521h-5e-4a111.92 111.92 0 0 0 111.92 111.92 111.92 111.92 0 0 0 0.1127-3e-3v3e-3h86.139a111.92 111.92 0 0 0 96.972 56.092v-37.306a74.613 74.613 0 0 1-72.238-56.092h-110.99a74.613 74.613 0 0 1-74.612-74.612h5e-4v-18.521h-5e-4a74.613 74.613 0 0 1 74.612-74.612h108.61a74.613 74.613 0 0 1 74.612 74.612v186.53h37.306v-186.53a111.92 111.92 0 0 0-111.92-111.92 111.92 111.92 0 0 0-9.3927 0.43923v-0.43923h-99.124v3e-3a111.92 111.92 0 0 0-0.095-3e-3z" fill="#ccc" stroke-width=".26458"/>
 </g>
</svg>
