<?xml version="1.0" encoding="UTF-8"?>
<svg width="1551" height="1762.5" version="1.1" viewBox="0 0 410.37 466.33" xmlns="http://www.w3.org/2000/svg" xmlns:cc="http://creativecommons.org/ns#" xmlns:dc="http://purl.org/dc/elements/1.1/" xmlns:rdf="http://www.w3.org/1999/02/22-rdf-syntax-ns#">
 <title>Globo Politico Icon for Fist</title>
 <metadata>
  <rdf:RDF>
   <cc:Work rdf:about="">
    <dc:format>image/svg+xml</dc:format>
    <dc:type rdf:resource="http://purl.org/dc/dcmitype/StillImage"/>
    <dc:title>Globo Politico Icon for Fist</dc:title>
   </cc:Work>
  </rdf:RDF>
 </metadata>
 <g transform="translate(-1902.6 -1193.8)">
  <path d="m2014.5 1193.8a111.92 111.92 0 0 0-111.83 110.81h-0.01v1.1038a111.92 111.92 0 0 0 0 5e-4v130.57h37.306v74.498a111.92 112.03 0 0 0 0 0.046v0.069a111.92 112.03 0 0 0 111.83 111.92l5e-4 -6e-4a111.92 112.03 0 0 0 0.087 6e-4v37.306h37.306v-74.612h-37.306v-0.038a74.613 74.689 0 0 1-74.612-74.689v-74.498h103.04a111.92 112.03 0 0 0 83.4 37.421l5e-4 -5e-4a111.92 112.03 0 0 0 0.087 5e-4v-0.1147h1.588a111.92 112.03 0 0 0-1.588 18.804 111.92 112.03 0 0 0 111.83 112.03l5e-4 -5e-4a111.92 112.03 0 0 0 0.087 5e-4v55.693h37.306v-466.33h-37.306a111.92 111.92 0 0 0-74.612 28.5v-28.5h-37.306a111.92 111.92 0 0 0-74.612 28.5v-28.5a111.92 111.92 0 0 0-0.087 0h-5e-4a111.92 111.92 0 0 0-74.525 28.5v-28.5a111.92 111.92 0 0 0-0.087 0zm149.31 37.306v74.552a111.92 111.92 0 0 0 0 0.06 111.92 111.92 0 0 0 1.5658 18.653h-73.808a74.613 74.613 0 0 1-2.3699-18.653 74.613 74.613 0 0 1 74.612-74.612zm111.92 0v93.266h-72.243a74.613 74.613 0 0 1-2.3699-18.653 74.613 74.613 0 0 1 74.612-74.612zm-298.45 9.9963v157.88h-37.306v-93.266a74.613 74.613 0 0 1 37.306-64.616zm74.612 0v64.616a111.92 111.92 0 0 0 0 0.1137v55.846a111.92 112.03 0 0 0 6.3872 37.306h-43.694v-93.266a74.613 74.613 0 0 1 37.306-64.616zm37.306 120.58h186.53v205.41a74.613 74.689 0 0 1-74.612-74.689v-56.111h-37.306v0.076a74.613 74.689 0 0 1-74.612-74.689z" fill="#ccc" stroke-width=".26458"/>
 </g>
</svg>
