<?xml version="1.0" encoding="UTF-8"?>
<svg width="846" height="1128" version="1.1" viewBox="0 0 223.84 298.45" xmlns="http://www.w3.org/2000/svg" xmlns:cc="http://creativecommons.org/ns#" xmlns:dc="http://purl.org/dc/elements/1.1/" xmlns:rdf="http://www.w3.org/1999/02/22-rdf-syntax-ns#">
 <title>Globo Politico Icon for User</title>
 <metadata>
  <rdf:RDF>
   <cc:Work rdf:about="">
    <dc:format>image/svg+xml</dc:format>
    <dc:type rdf:resource="http://purl.org/dc/dcmitype/StillImage"/>
    <dc:title>Globo Politico Icon for User</dc:title>
   </cc:Work>
  </rdf:RDF>
 </metadata>
 <g transform="translate(-3803.6 -596.9)">
  <path transform="matrix(.26458 0 0 .26458 6267.4 1921.3)" d="m-8883-5005.5c-154.91 0-282 127.09-282 282s127.09 282 282 282c154.91 0 282-127.09 282-282s-127.1-282-282-282zm0 141c78.707 0 141 62.287 141 140.99s-62.295 141-141 141c-78.707 0-141-62.293-141-141s62.295-140.99 141-140.99zm-6 493a423 423 0 0 0-416.44 353h-0.5585v2.8085a423 423 0 0 0-6.002 67.192 423 423 0 0 0 6.002 71h834a423 423 0 0 0 6.004-71 423 423 0 0 0-423-423zm0 141a282 282 0 0 1 273.07 212h-545.39a282 282 0 0 1 272.31-212z" color="#000000" fill="#ccc" stroke-width="3.7795" style="-inkscape-stroke:none"/>
 </g>
</svg>
