<?xml version="1.0" encoding="UTF-8"?>
<svg width="1298.2" height="5248" version="1.1" viewBox="0 0 343.48 1388.5" xmlns="http://www.w3.org/2000/svg" xmlns:cc="http://creativecommons.org/ns#" xmlns:dc="http://purl.org/dc/elements/1.1/" xmlns:rdf="http://www.w3.org/1999/02/22-rdf-syntax-ns#">
 <title>Globo Politico Pattern of Background Icons</title>
 <metadata>
  <rdf:RDF>
   <cc:Work rdf:about="">
    <dc:format>image/svg+xml</dc:format>
    <dc:type rdf:resource="http://purl.org/dc/dcmitype/StillImage"/>
    <dc:title>Globo Politico Pattern of Background Icons</dc:title>
   </cc:Work>
  </rdf:RDF>
 </metadata>
 <g transform="translate(-1224 -2864.4)">
  <g transform="translate(0 55.959)" fill="#ccc">
   <path d="m1483.4 3818.5a84.104 84.104 0 0 1 84.104 84.104v84.104a84.104 84.104 0 0 1-84.104 84.104h-141.33a84.104 84.104 0 0 1-82.944 70.186h-28.035v-238.4a84.104 84.104 0 0 1 84.104-84.104h168.12zm0 28.035h-168.21a56.07 56.07 0 0 0-56.07 56.07v210.36a56.07 56.07 0 0 0 56.07-56.069v-14.117h168.21a56.07 56.07 0 0 0 56.07-56.07v-84.104a56.07 56.07 0 0 0-56.07-56.07z" stroke-width=".19883"/>
   <path d="m1333.4 3352.8a72.09 72.09 0 0 0-0.1414-0.038 72.09 72.09 0 0 0-0.143-0.038 72.09 72.09 0 0 0-0.068-0.018 72.09 72.09 0 0 0-0.1935-0.052 72.09 72.09 0 0 0-0.023-0.01 72.09 72.09 0 0 0-0.068-0.018 72.09 72.09 0 0 0-0.1952-0.052 72.09 72.09 0 0 0-0.087-0.023 72.09 72.09 0 0 0-0.2224-0.049 72.09 72.09 0 0 0-0.2873-0.067 72.09 72.09 0 0 0-0.2871-0.067 72.09 72.09 0 0 0-0.2225-0.049 72.09 72.09 0 0 0-0.261-0.06 72.09 72.09 0 0 0-0.027-0.01 72.09 72.09 0 0 0-0.2571-0.059 72.09 72.09 0 0 0-0.034-0.01 72.09 72.09 0 0 0-0.1868-0.04 72.09 72.09 0 0 0-0.12-0.022 72.09 72.09 0 0 0-0.1721-0.036 72.09 72.09 0 0 0-0.1186-0.022 72.09 72.09 0 0 0-0.164-0.034 72.09 72.09 0 0 0-0.1463-0.029 72.09 72.09 0 0 0-0.065-0.01 72.09 72.09 0 0 0-0.232-0.05 72.09 72.09 0 0 0-0.053-0.014 72.09 72.09 0 0 0-0.2484-0.052 72.09 72.09 0 0 0-0.2887-0.06 72.09 72.09 0 0 0-0.289-0.058 72.09 72.09 0 0 0-0.2288-0.045 72.09 72.09 0 0 0-0.1544-0.03 72.09 72.09 0 0 0-0.1958-0.037 72.09 72.09 0 0 0-0.2445-0.046 72.09 72.09 0 0 0-0.2216-0.041 72.09 72.09 0 0 0-0.063-0.01 72.09 72.09 0 0 0-0.1609-0.029 72.09 72.09 0 0 0-0.1459-0.025 72.09 72.09 0 0 0-0.1421-0.024 72.09 72.09 0 0 0-0.1677-0.028 72.09 72.09 0 0 0-0.05 0 72.09 72.09 0 0 0-0.248-0.042 72.09 72.09 0 0 0-0.039-3e-4 72.09 72.09 0 0 0-0.2627-0.043 72.09 72.09 0 0 0-0.2882-0.047 72.09 72.09 0 0 0-0.2188-0.035 72.09 72.09 0 0 0-0.1575-0.025 72.09 72.09 0 0 0-0.2061-0.031 72.09 72.09 0 0 0-0.2408-0.036 72.09 72.09 0 0 0-0.2099-0.03 72.09 72.09 0 0 0-0.091-0.013 72.09 72.09 0 0 0-0.1269-0.018 72.09 72.09 0 0 0-0.1802-0.026 72.09 72.09 0 0 0-0.1094-0.015 72.09 72.09 0 0 0-0.1814-0.025 72.09 72.09 0 0 0-0.1183-0.015 72.09 72.09 0 0 0-0.1958-0.025 72.09 72.09 0 0 0-0.019-0.01 72.09 72.09 0 0 0-0.279-0.036 72.09 72.09 0 0 0-0.2924-0.037 72.09 72.09 0 0 0-0.2198-0.027 72.09 72.09 0 0 0-0.2816-0.033 72.09 72.09 0 0 0-0.016 0 72.09 72.09 0 0 0-0.138-0.016 72.09 72.09 0 0 0-0.2213-0.024 72.09 72.09 0 0 0-0.2602-0.028 72.09 72.09 0 0 0-0.065-0.01 72.09 72.09 0 0 0-0.2604-0.027 72.09 72.09 0 0 0-0.2664-0.027 72.09 72.09 0 0 0-0.1122-0.01 72.09 72.09 0 0 0-0.2026-0.019 72.09 72.09 0 0 0-0.014 0 72.09 72.09 0 0 0-76.339 53.119l-18.658 69.633a72.09 72.09 0 0 0 39.567 84.179 72.09 72.09 0 0 0 0.051 0.024 72.09 72.09 0 0 0 1.3227 0.5899 72.09 72.09 0 0 0 0.094 0.041 72.09 72.09 0 0 0 0.1955 0.084 72.09 72.09 0 0 0 0.021 0.016 72.09 72.09 0 0 0 0.7848 0.3309 72.09 72.09 0 0 0 0.063 0.027 72.09 72.09 0 0 0 0.4573 0.1867 72.09 72.09 0 0 0 0.1877 0.076 72.09 72.09 0 0 0 0.1065 0.042 72.09 72.09 0 0 0 0.047 0.023 72.09 72.09 0 0 0 1.5931 0.6146 72.09 72.09 0 0 0 0.1067 0.039 72.09 72.09 0 0 0 0.1438 0.053 72.09 72.09 0 0 0 0.052 0.024 72.09 72.09 0 0 0 0.8196 0.2952 72.09 72.09 0 0 0 0.014 0 72.09 72.09 0 0 0 0.2249 0.079 72.09 72.09 0 0 0 0.2623 0.091 72.09 72.09 0 0 0 0.025 0.01 72.09 72.09 0 0 0 0.1356 0.047 72.09 72.09 0 0 0 0.1678 0.058 72.09 72.09 0 0 0 0.02 0.01 72.09 72.09 0 0 0 0.2258 0.076 72.09 72.09 0 0 0 0.148 0.05 72.09 72.09 0 0 0 0.446 0.1465 72.09 72.09 0 0 0 0.073 0.03 72.09 72.09 0 0 0 0.4528 0.1452 72.09 72.09 0 0 0 0.2001 0.064 72.09 72.09 0 0 0 0.1072 0.04 72.09 72.09 0 0 0 0.1026 0.038 72.09 72.09 0 0 0 0.7394 0.225 72.09 72.09 0 0 0 0.085 0.023 72.09 72.09 0 0 0 0.2144 0.068 72.09 72.09 0 0 0 0.014 0 72.09 72.09 0 0 0 0.2274 0.071 72.09 72.09 0 0 0 0.2662 0.082 72.09 72.09 0 0 0 0.016 0 72.09 72.09 0 0 0 0.146 0.039 72.09 72.09 0 0 0 0.1738 0.047 72.09 72.09 0 0 0 0.019 0.01 72.09 72.09 0 0 0 0.2302 0.062 72.09 72.09 0 0 0 0.1485 0.04 72.09 72.09 0 0 0 0.4208 0.1127 72.09 72.09 0 0 0 0.055 0.015 72.09 72.09 0 0 0 0.2845 0.076 72.09 72.09 0 0 0 0.1907 0.051 72.09 72.09 0 0 0 0.1485 0.04 72.09 72.09 0 0 0 0.2496 0.067 72.09 72.09 0 0 0 0.1739 0.047 72.09 72.09 0 0 0 0.1459 0.039 72.09 72.09 0 0 0 0.2874 0.067 72.09 72.09 0 0 0 0.5466 0.1319 72.09 72.09 0 0 0 0.2589 0.059 72.09 72.09 0 0 0 0.6011 0.1373 72.09 72.09 0 0 0 0.3134 0.07 72.09 72.09 0 0 0 0.2326 0.051 72.09 72.09 0 0 0 0.3083 0.066 72.09 72.09 0 0 0 0.2688 0.055 72.09 72.09 0 0 0 0.191 0.04 72.09 72.09 0 0 0 0.153 0.031 72.09 72.09 0 0 0 0.2545 0.052 72.09 72.09 0 0 0 0.1742 0.034 72.09 72.09 0 0 0 0.1408 0.027 72.09 72.09 0 0 0 0.2981 0.057 72.09 72.09 0 0 0 1.1043 0.2007 72.09 72.09 0 0 0 0.2069 0.036 72.09 72.09 0 0 0 0.1118 0.02 72.09 72.09 0 0 0 0.2631 0.043 72.09 72.09 0 0 0 1.4741 0.2276 72.09 72.09 0 0 0 0.1134 0.017 72.09 72.09 0 0 0 0.2007 0.028 72.09 72.09 0 0 0 0.2523 0.033 72.09 72.09 0 0 0 1.1742 0.1499 72.09 72.09 0 0 0 0.2115 0.025 72.09 72.09 0 0 0 0.1015 0.012 72.09 72.09 0 0 0 0.2679 0.029 72.09 72.09 0 0 0 1.1728 0.1205 72.09 72.09 0 0 0 0.072 0.01 72.09 72.09 0 0 0 22.654-1.4736h89.602l-11.395 42.526a48.06 48.06 0 0 1-58.861 33.984l-6.2193 23.211 116.06 31.097 35.053-130.82 49.067-2e-4 0.6417 0.1719 5.1962-19.392 23.212 6.2198 12.439-46.422-23.211-6.2194 5.6322-21.02-0.6416-0.1719-187.3-108.13a72.09 72.09 0 0 0-16.483-10.48 72.09 72.09 0 0 0-0.014 0 72.09 72.09 0 0 0-0.1851-0.085 72.09 72.09 0 0 0-0.1023-0.047 72.09 72.09 0 0 0-0.2441-0.1099 72.09 72.09 0 0 0-0.2391-0.1065 72.09 72.09 0 0 0-0.06-0.026 72.09 72.09 0 0 0-0.2395-0.1056 72.09 72.09 0 0 0-0.2037-0.09 72.09 72.09 0 0 0-0.127-0.056 72.09 72.09 0 0 0-0.018 0 72.09 72.09 0 0 0-0.2602-0.1131 72.09 72.09 0 0 0-0.1365-0.058 72.09 72.09 0 0 0-0.067-0.028 72.09 72.09 0 0 0-0.2713-0.1152 72.09 72.09 0 0 0-0.2598-0.108 72.09 72.09 0 0 0-0.019-0.01 72.09 72.09 0 0 0-0.1824-0.076 72.09 72.09 0 0 0-0.1099-0.046 72.09 72.09 0 0 0-0.1696-0.069 72.09 72.09 0 0 0-0.1024-0.041 72.09 72.09 0 0 0-0.1689-0.068 72.09 72.09 0 0 0-0.118-0.048 72.09 72.09 0 0 0-0.085-0.033 72.09 72.09 0 0 0-0.197-0.079 72.09 72.09 0 0 0-0.2263-0.09 72.09 72.09 0 0 0-0.194-0.077 72.09 72.09 0 0 0-0.1487-0.057 72.09 72.09 0 0 0-0.2092-0.081 72.09 72.09 0 0 0-0.2731-0.1032 72.09 72.09 0 0 0-0.2492-0.094 72.09 72.09 0 0 0-0.034-0.019 72.09 72.09 0 0 0-0.2357-0.087 72.09 72.09 0 0 0-0.045-0.022 72.09 72.09 0 0 0-0.1595-0.059 72.09 72.09 0 0 0-0.1352-0.05 72.09 72.09 0 0 0-0.1391-0.051 72.09 72.09 0 0 0-0.1534-0.056 72.09 72.09 0 0 0-0.058-0.026 72.09 72.09 0 0 0-0.2123-0.076 72.09 72.09 0 0 0-0.2347-0.083 72.09 72.09 0 0 0-0.188-0.066 72.09 72.09 0 0 0-0.1486-0.051 72.09 72.09 0 0 0-0.2205-0.076 72.09 72.09 0 0 0-0.2793-0.095 72.09 72.09 0 0 0-0.2799-0.093 72.09 72.09 0 0 0-0.2412-0.079 72.09 72.09 0 0 0-0.053-0.014 72.09 72.09 0 0 0-0.2258-0.073 72.09 72.09 0 0 0-0.06-0.026 72.09 72.09 0 0 0-0.141-0.048 72.09 72.09 0 0 0-0.1588-0.053 72.09 72.09 0 0 0-0.1136-0.041 72.09 72.09 0 0 0-0.1669-0.055 72.09 72.09 0 0 0-0.1149-0.041 72.09 72.09 0 0 0-0.1816-0.059 72.09 72.09 0 0 0-0.034-0.01 72.09 72.09 0 0 0-0.2521-0.078 72.09 72.09 0 0 0-0.027-0.01 72.09 72.09 0 0 0-0.2559-0.079 72.09 72.09 0 0 0-0.2174-0.069 72.09 72.09 0 0 0-0.2819-0.086 72.09 72.09 0 0 0-0.2819-0.086 72.09 72.09 0 0 0-0.2173-0.069 72.09 72.09 0 0 0-0.088-0.023 72.09 72.09 0 0 0-0.1952-0.052 72.09 72.09 0 0 0-0.068-0.018 72.09 72.09 0 0 0-0.023-0.01 72.09 72.09 0 0 0-0.1935-0.052 72.09 72.09 0 0 0-0.068-0.018 72.09 72.09 0 0 0-0.1429-0.038 72.09 72.09 0 0 0-0.2123-0.057 72.09 72.09 0 0 0-0.071-0.019zm-6.1489 23.23a48.06 48.06 0 0 1 33.983 58.861l-18.658 69.633a48.06 48.06 0 0 1-58.861 33.983 48.06 48.06 0 0 1-33.983-58.861l18.658-69.633a48.06 48.06 0 0 1 58.861-33.983zm58.421 33.163 135.61 78.296-13.631 50.87-156.22-1e-4a72.09 72.09 0 0 0 14.355-27.615l18.658-69.633a72.09 72.09 0 0 0 1.2266-31.917zm65.787 153.2-27.167 101.39-40.943-10.971a72.09 72.09 0 0 0 30.171-41.671l13.061-48.745z" stroke-width=".17042"/>
   <path d="m1323 2864.4a91.505 91.505 0 0 0-91.429 90.603h-0.01v0.9024a91.505 91.505 0 0 0 0 4e-4v106.76h30.502v60.91a91.505 91.599 0 0 0 0 0.037v0.057a91.505 91.599 0 0 0 91.434 91.505l4e-4 -4e-4a91.505 91.599 0 0 0 0.071 4e-4v30.502h30.502v-61.004h-30.502v-0.031a61.004 61.066 0 0 1-61.004-61.066v-60.91h84.249a91.505 91.599 0 0 0 68.188 30.596l4e-4 -4e-4a91.505 91.599 0 0 0 0.071 4e-4v-0.094h1.2984a91.505 91.599 0 0 0-1.2984 15.375 91.505 91.599 0 0 0 91.434 91.599l4e-4 -4e-4a91.505 91.599 0 0 0 0.071 4e-4v45.535h30.502v-381.27h-30.502a91.505 91.505 0 0 0-61.004 23.301v-23.301h-30.502a91.505 91.505 0 0 0-61.004 23.302v-23.302a91.505 91.505 0 0 0-0.071 0h-4e-4a91.505 91.505 0 0 0-60.932 23.301v-23.301a91.505 91.505 0 0 0-0.071 0zm122.08 30.502v60.954a91.505 91.505 0 0 0 0 0.049 91.505 91.505 0 0 0 1.2802 15.251h-60.346a61.004 61.004 0 0 1-1.9376-15.251 61.004 61.004 0 0 1 61.004-61.004zm91.505 0v76.255h-59.066a61.004 61.004 0 0 1-1.9376-15.251 61.004 61.004 0 0 1 61.004-61.004zm-244.01 8.173v129.09h-30.502v-76.255a61.004 61.004 0 0 1 30.502-52.83zm61.004 0v52.83a91.505 91.505 0 0 0 0 0.093v45.66a91.505 91.599 0 0 0 5.2222 30.502h-35.724v-76.255a61.004 61.004 0 0 1 30.502-52.83zm30.502 98.583h152.51v167.95a61.004 61.066 0 0 1-61.004-61.066v-45.876h-30.502v0.062a61.004 61.066 0 0 1-61.004-61.066z" stroke-width=".21632"/>
  </g>
 </g>
</svg>
