<?xml version="1.0" encoding="UTF-8"?>
<svg width="2820" height="3384" version="1.1" viewBox="0 0 746.12 895.35" xmlns="http://www.w3.org/2000/svg" xmlns:cc="http://creativecommons.org/ns#" xmlns:dc="http://purl.org/dc/elements/1.1/" xmlns:rdf="http://www.w3.org/1999/02/22-rdf-syntax-ns#">
 <title>Globo Politico</title>
 <metadata>
  <rdf:RDF>
   <cc:Work rdf:about="">
    <dc:format>image/svg+xml</dc:format>
    <dc:type rdf:resource="http://purl.org/dc/dcmitype/StillImage"/>
    <dc:title>Globo Politico</dc:title>
   </cc:Work>
  </rdf:RDF>
 </metadata>
 <g transform="translate(-783.43 447.68)">
  <g transform="translate(-2126.5 -1.5e-5)" stroke-width=".61103">
   <g fill="#002b49">
    <path d="m3357.6 149.23v298.45h74.613v-298.45z"/>
    <path d="m3133.7 149.23v298.45h74.612v-298.45z"/>
    <path d="m2909.9 149.23v298.45h74.613v-298.45z"/>
   </g>
   <path d="m3245.4-447.67v149.23h37.571a149.22 149.22 0 0 1 144.42 111.65h-288.83a149.22 149.22 0 0 1 0-8.7e-4h-76.245a223.84 223.84 0 0 0-3.1757 37.571 223.84 223.84 0 0 0 223.84 223.84h298.45v373.06h74.612v-447.67h-373.06a149.22 149.22 0 0 1-144.56-112.18h329.7v-8.9e-4h35.608a223.84 223.84 0 0 0 3.0876-37.041 223.84 223.84 0 0 0-186.8-220.75v-77.699z" fill="#ce0056"/>
  </g>
 </g>
</svg>
