<?xml version="1.0" encoding="UTF-8"?>
<svg width="1410" height="1198.5" version="1.1" viewBox="0 0 373.06 317.1" xmlns="http://www.w3.org/2000/svg" xmlns:cc="http://creativecommons.org/ns#" xmlns:dc="http://purl.org/dc/elements/1.1/" xmlns:rdf="http://www.w3.org/1999/02/22-rdf-syntax-ns#">
 <title>Globo Politico Icon for Twitter</title>
 <metadata>
  <rdf:RDF>
   <cc:Work rdf:about="">
    <dc:format>image/svg+xml</dc:format>
    <dc:type rdf:resource="http://purl.org/dc/dcmitype/StillImage"/>
    <dc:title>Globo Politico Icon for Twitter</dc:title>
   </cc:Work>
  </rdf:RDF>
 </metadata>
 <g transform="translate(-6267.4 -1921.3)">
  <path d="m6528.6 1921.3c-40.986 5e-4 -74.612 33.627-74.612 74.613 0 5.1123 0.5273 10.108 1.5229 14.94a73.219 74.613 0 0 1-45.926-69.212h-36.61a111.92 111.92 0 0 0 0 158.28 111.92 111.92 0 0 0 12.749 10.914 74.613 74.613 0 0 1-91.887-10.727l-26.38 26.379a111.92 111.92 0 0 0 111.92 111.92h111.92a111.92 111.92 0 0 0 111.92-111.92h5e-4v-130.57h37.306v-37.306l-4.8276-18.018-46.201 12.38c-13.556-19.114-35.847-31.668-60.889-31.669h-5e-4zm0 37.306c20.825 0 37.305 16.482 37.305 37.307v64.523c5e-4 -3e-4 0-5e-4 0 0v47.265h-6e-4v18.786a74.613 74.613 0 0 1-74.612 74.612h-111.92a74.613 74.613 0 0 1-69.72-48.145 111.92 111.92 0 0 0 116.08-26.468 111.92 111.92 0 0 0 12.16-14.406l-38.54-38.54a74.613 74.613 0 0 1-15.367-83.135 109.83 111.92 0 0 0 98.817 63.156 109.83 111.92 0 0 0 2.4413-0.061v0.067c1.0946 0.048 2.1936 0.077 3.2993 0.077 0.9208 0 1.8376-0.017 2.7504-0.051v-57.68c0-20.825 16.482-37.307 37.306-37.307z" fill="#ccc" stroke-width=".26458"/>
 </g>
</svg>
